<?xml version="1.0" encoding="UTF-8"?>
<svg width="20px" height="20px" viewBox="0 0 20 20" version="1.1" xmlns="http://www.w3.org/2000/svg" xmlns:xlink="http://www.w3.org/1999/xlink">
    <!-- Generator: Sketch 45.2 (43514) - http://www.bohemiancoding.com/sketch -->
    <title>Icon/Search</title>
    <desc>Created with Sketch.</desc>
    <defs></defs>
    <g id="Style-guide" stroke="none" stroke-width="1" fill="none" fill-rule="evenodd">
        <g transform="translate(-384.000000, -242.000000)" id="Icon/Search" fill="#A66C42">
            <g transform="translate(384.000000, 242.000000)">
                <path d="M20,18.9552239 L14.2288557,13.1840796 C14.5273632,12.8524036 14.7927021,12.4875654 15.0248756,12.0895522 C15.2570492,11.6915391 15.4560509,11.2769497 15.6218905,10.8457711 C15.7877301,10.4145926 15.9121067,9.95854328 15.9950265,9.47761035 C16.0779431,8.9966806 16.119403,8.52404856 16.119403,8.05970149 C16.119403,6.93200239 15.9038153,5.87894448 15.4726368,4.90049592 C15.0414583,3.92205055 14.4610324,3.06799761 13.7313433,2.33830846 C13.0016541,1.6086193 12.1476012,1.03648478 11.1691526,0.621888955 C10.1907073,0.207296318 9.15423522,0 8.05970149,0 C6.93200239,0 5.87894448,0.207296318 4.90049592,0.621888955 C3.92205055,1.03648478 3.06799698,1.6086193 2.33830846,2.33830846 C1.60861994,3.06799761 1.03648637,3.92205055 0.621890547,4.90049592 C0.20729479,5.87894448 0,6.93200239 0,8.05970149 C0,9.15423522 0.20729479,10.1907073 0.621890547,11.1691526 C1.03648637,12.1476012 1.60861994,13.0016541 2.33830846,13.7313433 C3.06799698,14.4610324 3.92205055,15.0414583 4.90049592,15.4726368 C5.87894448,15.9038153 6.93200239,16.119403 8.05970149,16.119403 C8.52404856,16.119403 8.9966806,16.0779431 9.47761035,15.9950265 C9.95854328,15.9121067 10.4145926,15.7877301 10.8457711,15.6218905 C11.2769497,15.4560509 11.6915391,15.2570492 12.0895522,15.0248756 C12.4875654,14.7927021 12.8524036,14.5273632 13.1840796,14.2288557 L18.9552239,20 L20,18.9552239 Z M1.48258706,8.05970149 C1.48258706,7.15250749 1.64890326,6.29824973 1.98154057,5.49689629 C2.31417789,4.69553994 2.78288705,3.99247634 3.38768228,3.38768228 C3.99247634,2.78288821 4.69553994,2.31417818 5.49689629,1.98154057 C6.29824973,1.64890297 7.15250749,1.48258706 8.05970149,1.48258706 C8.9668955,1.48258706 9.81359383,1.64890297 10.5998284,1.98154057 C11.3860631,2.31417818 12.0815672,2.78288821 12.6863613,3.38768228 C13.2911554,3.99247634 13.7674248,4.69553994 14.1151842,5.49689629 C14.4629406,6.29824973 14.6368159,7.15250749 14.6368159,8.05970149 C14.6368159,8.9668955 14.4629406,9.81359383 14.1151842,10.5998284 C13.7674248,11.3860631 13.2911554,12.0815672 12.6863613,12.6863613 C12.0815672,13.2911554 11.3860631,13.7674248 10.5998284,14.1151842 C9.81359383,14.4629406 8.9668955,14.6368159 8.05970149,14.6368159 C7.15250749,14.6368159 6.29824973,14.4629406 5.49689629,14.1151842 C4.69553994,13.7674248 3.99247634,13.2911554 3.38768228,12.6863613 C2.78288705,12.0815672 2.31417789,11.3860631 1.98154057,10.5998284 C1.64890326,9.81359383 1.48258706,8.9668955 1.48258706,8.05970149 Z"></path>
            </g>
        </g>
    </g>
</svg>